<svg xmlns="http://www.w3.org/2000/svg" width="1600" height="900" viewBox="0 0 1600 900">
  <defs>
    <linearGradient id="g1" x1="0" y1="0" x2="1" y2="1">
      <stop offset="0" stop-color="#4f46e5"/>
      <stop offset="0.55" stop-color="#0ea5e9"/>
      <stop offset="1" stop-color="#10b981"/>
    </linearGradient>
    <filter id="blur" x="-20%" y="-20%" width="140%" height="140%">
      <feGaussianBlur stdDeviation="40"/>
    </filter>
  </defs>
  <rect width="1600" height="900" fill="#0b1220"/>
  <circle cx="430" cy="260" r="240" fill="url(#g1)" opacity="0.7" filter="url(#blur)"/>
  <circle cx="1200" cy="220" r="280" fill="#4f46e5" opacity="0.45" filter="url(#blur)"/>
  <circle cx="980" cy="680" r="320" fill="#10b981" opacity="0.28" filter="url(#blur)"/>
  <circle cx="260" cy="740" r="280" fill="#0ea5e9" opacity="0.25" filter="url(#blur)"/>
  <path d="M0 620C160 560 300 560 420 620c140 70 290 80 450 20 190-70 370-50 530 60v200H0V620z" fill="#0f172a" opacity="0.7"/>
  <path d="M0 670c180-50 320-40 420 30 140 100 310 120 510 60 220-70 420-40 670 90v50H0v-230z" fill="#111c33" opacity="0.7"/>
</svg>

